<mxfile host="app.diagrams.net" modified="2021-06-29T02:27:43.521Z" agent="5.0 (Macintosh; Intel Mac OS X 10_15_7) AppleWebKit/605.1.15 (KHTML, like Gecko) Version/14.0.3 Safari/605.1.15" etag="gZueK22T9FVQx2dWxKl_" version="14.8.0" type="github">
  <diagram id="kPsZg8BQnSZ3cLa_LldH" name="Page-1">
    <mxGraphModel dx="1259" dy="739" grid="1" gridSize="10" guides="1" tooltips="1" connect="1" arrows="1" fold="1" page="1" pageScale="1" pageWidth="827" pageHeight="1169" math="0" shadow="0">
      <root>
        <mxCell id="0" />
        <mxCell id="1" parent="0" />
        <mxCell id="18sKmGABmxuHHAGD90Af-1" value="" style="whiteSpace=wrap;html=1;aspect=fixed;" vertex="1" parent="1">
          <mxGeometry x="190" y="80" width="530" height="530" as="geometry" />
        </mxCell>
        <mxCell id="18sKmGABmxuHHAGD90Af-3" value="White Paper" style="rounded=0;whiteSpace=wrap;html=1;" vertex="1" parent="1">
          <mxGeometry x="550" y="120" width="120" height="60" as="geometry" />
        </mxCell>
        <mxCell id="18sKmGABmxuHHAGD90Af-4" value="Enter crypto asset here" style="rounded=0;whiteSpace=wrap;html=1;" vertex="1" parent="1">
          <mxGeometry x="234" y="350" width="336" height="60" as="geometry" />
        </mxCell>
        <mxCell id="18sKmGABmxuHHAGD90Af-5" value="Search" style="whiteSpace=wrap;html=1;aspect=fixed;" vertex="1" parent="1">
          <mxGeometry x="590" y="350" width="60" height="60" as="geometry" />
        </mxCell>
        <mxCell id="18sKmGABmxuHHAGD90Af-9" value="&lt;font style=&quot;font-size: 24px&quot;&gt;GovStack&lt;/font&gt;" style="text;html=1;strokeColor=none;fillColor=none;align=center;verticalAlign=middle;whiteSpace=wrap;rounded=0;" vertex="1" parent="1">
          <mxGeometry x="294.5" y="210" width="321" height="80" as="geometry" />
        </mxCell>
      </root>
    </mxGraphModel>
  </diagram>
</mxfile>
